<mxfile host="app.diagrams.net" modified="2021-08-10T06:07:17.137Z" agent="5.0 (Macintosh; Intel Mac OS X 10_15_7) AppleWebKit/537.36 (KHTML, like Gecko) Chrome/92.0.4515.131 Safari/537.36" etag="JTct7CtwxBhWWqe3jY43" version="14.9.5" type="github">
  <diagram id="Hhq6TgvwZiD23uWVVZfH" name="Page-1">
    <mxGraphModel dx="3720" dy="2300" grid="1" gridSize="10" guides="1" tooltips="1" connect="1" arrows="1" fold="1" page="1" pageScale="1" pageWidth="827" pageHeight="1169" math="0" shadow="0">
      <root>
        <mxCell id="0" />
        <mxCell id="1" parent="0" />
        <mxCell id="WMnNzlg43lZmWvhndhF3-1" value="TXLivePusherImpl" style="rounded=1;whiteSpace=wrap;html=1;arcSize=40;fontColor=#000000;fillColor=#ffffc0;strokeColor=#ff0000;" vertex="1" parent="1">
          <mxGeometry x="-1540" y="-970" width="120" height="40" as="geometry" />
        </mxCell>
        <mxCell id="WMnNzlg43lZmWvhndhF3-2" value="" style="edgeStyle=orthogonalEdgeStyle;html=1;verticalAlign=bottom;endArrow=open;endSize=8;strokeColor=#ff0000;" edge="1" source="WMnNzlg43lZmWvhndhF3-1" parent="1">
          <mxGeometry relative="1" as="geometry">
            <mxPoint x="-1460" y="2669" as="targetPoint" />
          </mxGeometry>
        </mxCell>
        <mxCell id="WMnNzlg43lZmWvhndhF3-4" value="&lt;pre style=&quot;background-color: #2b2b2b ; color: #a9b7c6 ; font-family: &amp;#34;menlo&amp;#34; , monospace ; font-size: 11.3pt&quot;&gt;&lt;br&gt;&lt;/pre&gt;" style="edgeLabel;html=1;align=center;verticalAlign=middle;resizable=0;points=[];" vertex="1" connectable="0" parent="WMnNzlg43lZmWvhndhF3-2">
          <mxGeometry x="-0.9635" y="-1" relative="1" as="geometry">
            <mxPoint as="offset" />
          </mxGeometry>
        </mxCell>
        <mxCell id="WMnNzlg43lZmWvhndhF3-12" value="resumePusher()" style="edgeLabel;html=1;align=center;verticalAlign=middle;resizable=0;points=[];" vertex="1" connectable="0" parent="WMnNzlg43lZmWvhndhF3-2">
          <mxGeometry x="-0.9657" y="-1" relative="1" as="geometry">
            <mxPoint as="offset" />
          </mxGeometry>
        </mxCell>
        <mxCell id="WMnNzlg43lZmWvhndhF3-5" value="TXCCameraCaptureSource" style="rounded=1;whiteSpace=wrap;html=1;arcSize=40;fontColor=#000000;fillColor=#ffffc0;strokeColor=#ff0000;" vertex="1" parent="1">
          <mxGeometry x="-950" y="-960" width="170" height="40" as="geometry" />
        </mxCell>
        <mxCell id="WMnNzlg43lZmWvhndhF3-6" value="" style="edgeStyle=orthogonalEdgeStyle;html=1;verticalAlign=bottom;endArrow=open;endSize=8;strokeColor=#ff0000;" edge="1" source="WMnNzlg43lZmWvhndhF3-5" parent="1">
          <mxGeometry relative="1" as="geometry">
            <mxPoint x="-860" y="2684" as="targetPoint" />
            <Array as="points">
              <mxPoint x="-860" y="-900" />
              <mxPoint x="-860" y="-900" />
            </Array>
          </mxGeometry>
        </mxCell>
        <mxCell id="WMnNzlg43lZmWvhndhF3-15" value="startCapture(SurfaceTexture surfaceTexture)" style="edgeLabel;html=1;align=center;verticalAlign=middle;resizable=0;points=[];" vertex="1" connectable="0" parent="WMnNzlg43lZmWvhndhF3-6">
          <mxGeometry x="-0.9162" y="-2" relative="1" as="geometry">
            <mxPoint as="offset" />
          </mxGeometry>
        </mxCell>
        <mxCell id="WMnNzlg43lZmWvhndhF3-34" value="onCameraCaptureFrame(byte[] nv21)" style="edgeLabel;html=1;align=center;verticalAlign=middle;resizable=0;points=[];" vertex="1" connectable="0" parent="WMnNzlg43lZmWvhndhF3-6">
          <mxGeometry x="-0.7897" y="-3" relative="1" as="geometry">
            <mxPoint as="offset" />
          </mxGeometry>
        </mxCell>
        <mxCell id="WMnNzlg43lZmWvhndhF3-7" value="TXCCaptureAndEnc" style="rounded=1;whiteSpace=wrap;html=1;arcSize=40;fontColor=#000000;fillColor=#ffffc0;strokeColor=#ff0000;" vertex="1" parent="1">
          <mxGeometry x="-1260" y="-970" width="120" height="40" as="geometry" />
        </mxCell>
        <mxCell id="WMnNzlg43lZmWvhndhF3-8" value="" style="edgeStyle=orthogonalEdgeStyle;html=1;verticalAlign=bottom;endArrow=open;endSize=8;strokeColor=#ff0000;" edge="1" source="WMnNzlg43lZmWvhndhF3-7" parent="1">
          <mxGeometry relative="1" as="geometry">
            <mxPoint x="-1190" y="2732" as="targetPoint" />
          </mxGeometry>
        </mxCell>
        <mxCell id="WMnNzlg43lZmWvhndhF3-13" value="resumePusher()" style="edgeLabel;html=1;align=center;verticalAlign=middle;resizable=0;points=[];" vertex="1" connectable="0" parent="WMnNzlg43lZmWvhndhF3-8">
          <mxGeometry x="-0.927" y="-2" relative="1" as="geometry">
            <mxPoint as="offset" />
          </mxGeometry>
        </mxCell>
        <mxCell id="WMnNzlg43lZmWvhndhF3-14" value="" style="endArrow=classic;html=1;" edge="1" parent="1">
          <mxGeometry width="50" height="50" relative="1" as="geometry">
            <mxPoint x="-1480" y="-840" as="sourcePoint" />
            <mxPoint x="-1200" y="-840" as="targetPoint" />
          </mxGeometry>
        </mxCell>
        <mxCell id="WMnNzlg43lZmWvhndhF3-16" value="" style="endArrow=classic;html=1;" edge="1" parent="1">
          <mxGeometry width="50" height="50" relative="1" as="geometry">
            <mxPoint x="-1200" y="-780" as="sourcePoint" />
            <mxPoint x="-870" y="-780" as="targetPoint" />
          </mxGeometry>
        </mxCell>
        <mxCell id="WMnNzlg43lZmWvhndhF3-17" value="TXCCameraCapturer" style="rounded=1;whiteSpace=wrap;html=1;arcSize=40;fontColor=#000000;fillColor=#ffffc0;strokeColor=#ff0000;" vertex="1" parent="1">
          <mxGeometry x="-550" y="-920" width="130" height="40" as="geometry" />
        </mxCell>
        <mxCell id="WMnNzlg43lZmWvhndhF3-18" value="" style="edgeStyle=orthogonalEdgeStyle;html=1;verticalAlign=bottom;endArrow=open;endSize=8;strokeColor=#ff0000;" edge="1" source="WMnNzlg43lZmWvhndhF3-17" parent="1">
          <mxGeometry relative="1" as="geometry">
            <mxPoint x="-480" y="2690" as="targetPoint" />
          </mxGeometry>
        </mxCell>
        <mxCell id="WMnNzlg43lZmWvhndhF3-20" value="startCapture(boolean front)" style="edgeLabel;html=1;align=center;verticalAlign=middle;resizable=0;points=[];" vertex="1" connectable="0" parent="WMnNzlg43lZmWvhndhF3-18">
          <mxGeometry x="-0.9064" relative="1" as="geometry">
            <mxPoint as="offset" />
          </mxGeometry>
        </mxCell>
        <mxCell id="WMnNzlg43lZmWvhndhF3-22" value="&lt;pre style=&quot;background-color: #2b2b2b ; color: #a9b7c6 ; font-family: &amp;#34;menlo&amp;#34; , monospace ; font-size: 11.3pt&quot;&gt;&lt;br&gt;&lt;/pre&gt;" style="edgeLabel;html=1;align=center;verticalAlign=middle;resizable=0;points=[];" vertex="1" connectable="0" parent="WMnNzlg43lZmWvhndhF3-18">
          <mxGeometry x="-0.8513" y="-1" relative="1" as="geometry">
            <mxPoint as="offset" />
          </mxGeometry>
        </mxCell>
        <mxCell id="WMnNzlg43lZmWvhndhF3-31" value="&lt;pre style=&quot;background-color: rgb(43 , 43 , 43)&quot;&gt;&lt;font color=&quot;#a9b7c6&quot; face=&quot;Menlo, monospace&quot;&gt;&lt;span style=&quot;font-size: 11.3pt&quot;&gt;&lt;br&gt;&lt;/span&gt;&lt;/font&gt;&lt;/pre&gt;" style="edgeLabel;html=1;align=center;verticalAlign=middle;resizable=0;points=[];" vertex="1" connectable="0" parent="WMnNzlg43lZmWvhndhF3-18">
          <mxGeometry x="-0.8406" relative="1" as="geometry">
            <mxPoint as="offset" />
          </mxGeometry>
        </mxCell>
        <mxCell id="WMnNzlg43lZmWvhndhF3-32" value="onPreviewFrame(byte[] data, Camera camera)" style="edgeLabel;html=1;align=center;verticalAlign=middle;resizable=0;points=[];" vertex="1" connectable="0" parent="WMnNzlg43lZmWvhndhF3-18">
          <mxGeometry x="-0.8383" y="2" relative="1" as="geometry">
            <mxPoint as="offset" />
          </mxGeometry>
        </mxCell>
        <mxCell id="WMnNzlg43lZmWvhndhF3-19" value="" style="endArrow=classic;html=1;" edge="1" parent="1">
          <mxGeometry width="50" height="50" relative="1" as="geometry">
            <mxPoint x="-860" y="-740" as="sourcePoint" />
            <mxPoint x="-490" y="-740" as="targetPoint" />
          </mxGeometry>
        </mxCell>
        <mxCell id="WMnNzlg43lZmWvhndhF3-25" value="Camera" style="rounded=1;whiteSpace=wrap;html=1;arcSize=40;fontColor=#000000;fillColor=#ffffc0;strokeColor=#ff0000;" vertex="1" parent="1">
          <mxGeometry x="-250" y="-860" width="120" height="40" as="geometry" />
        </mxCell>
        <mxCell id="WMnNzlg43lZmWvhndhF3-26" value="" style="edgeStyle=orthogonalEdgeStyle;html=1;verticalAlign=bottom;endArrow=open;endSize=8;strokeColor=#ff0000;" edge="1" source="WMnNzlg43lZmWvhndhF3-25" parent="1">
          <mxGeometry relative="1" as="geometry">
            <mxPoint x="-190" y="2670" as="targetPoint" />
            <Array as="points">
              <mxPoint x="-190" y="2640" />
              <mxPoint x="-190" y="2640" />
            </Array>
          </mxGeometry>
        </mxCell>
        <mxCell id="WMnNzlg43lZmWvhndhF3-28" value="setPreviewCallback(this)" style="edgeLabel;html=1;align=center;verticalAlign=middle;resizable=0;points=[];" vertex="1" connectable="0" parent="WMnNzlg43lZmWvhndhF3-26">
          <mxGeometry x="-0.9289" y="-2" relative="1" as="geometry">
            <mxPoint x="2" y="16" as="offset" />
          </mxGeometry>
        </mxCell>
        <mxCell id="WMnNzlg43lZmWvhndhF3-30" value="startPreview()" style="edgeLabel;html=1;align=center;verticalAlign=middle;resizable=0;points=[];" vertex="1" connectable="0" parent="WMnNzlg43lZmWvhndhF3-26">
          <mxGeometry x="-0.8951" y="-1" relative="1" as="geometry">
            <mxPoint as="offset" />
          </mxGeometry>
        </mxCell>
        <mxCell id="WMnNzlg43lZmWvhndhF3-27" value="" style="endArrow=classic;html=1;" edge="1" parent="1">
          <mxGeometry width="50" height="50" relative="1" as="geometry">
            <mxPoint x="-480" y="-690" as="sourcePoint" />
            <mxPoint x="-200" y="-690" as="targetPoint" />
          </mxGeometry>
        </mxCell>
        <mxCell id="WMnNzlg43lZmWvhndhF3-29" value="this" style="edgeLabel;html=1;align=center;verticalAlign=middle;resizable=0;points=[];" vertex="1" connectable="0" parent="WMnNzlg43lZmWvhndhF3-27">
          <mxGeometry x="-0.1571" y="4" relative="1" as="geometry">
            <mxPoint as="offset" />
          </mxGeometry>
        </mxCell>
        <mxCell id="WMnNzlg43lZmWvhndhF3-33" value="" style="endArrow=classic;html=1;" edge="1" parent="1">
          <mxGeometry width="50" height="50" relative="1" as="geometry">
            <mxPoint x="-190" y="-610" as="sourcePoint" />
            <mxPoint x="-480" y="-610" as="targetPoint" />
          </mxGeometry>
        </mxCell>
        <mxCell id="WMnNzlg43lZmWvhndhF3-35" value="" style="endArrow=classic;html=1;" edge="1" parent="1">
          <mxGeometry width="50" height="50" relative="1" as="geometry">
            <mxPoint x="-490" y="-570" as="sourcePoint" />
            <mxPoint x="-860" y="-570" as="targetPoint" />
          </mxGeometry>
        </mxCell>
      </root>
    </mxGraphModel>
  </diagram>
</mxfile>
